<?xml version="1.0" standalone="no"?>
<!DOCTYPE svg PUBLIC "-//W3C//DTD SVG 20010904//EN"
 "http://www.w3.org/TR/2001/REC-SVG-20010904/DTD/svg10.dtd">
<svg version="1.0" xmlns="http://www.w3.org/2000/svg"
 width="200.000000pt" height="200.000000pt" viewBox="0 0 200.000000 200.000000"
 preserveAspectRatio="xMidYMid meet">

<g transform="translate(0.000000,200.000000) scale(0.100000,-0.100000)"
fill="#000000" stroke="none">
<path d="M803 1548 l-193 -112 0 -225 1 -226 194 -111 194 -112 195 112 195
111 1 225 0 225 -194 113 c-106 61 -195 112 -197 112 -2 0 -91 -51 -196 -112z
m174 -115 c14 -41 25 -45 44 -13 13 20 26 30 41 29 23 -1 23 -1 -1 -8 -30 -8
-45 -45 -25 -61 8 -7 14 -24 14 -39 0 -14 4 -31 8 -37 4 -6 49 -21 100 -34
161 -39 212 -79 161 -126 -17 -15 -36 -19 -93 -19 -68 0 -73 2 -117 39 -43 35
-52 38 -108 38 -56 0 -65 -3 -108 -38 -42 -35 -54 -39 -112 -42 -56 -3 -70 -1
-94 18 -62 49 -21 84 148 127 l110 28 6 37 c3 20 11 43 17 50 18 22 3 56 -27
61 l-26 4 28 2 c18 0 30 -5 34 -16z m83 -269 c0 -12 -12 -14 -57 -12 -75 4
-83 26 -11 30 62 4 68 2 68 -18z m18 -47 c4 -19 -51 -30 -107 -21 -29 5 -41
11 -41 23 0 14 11 16 73 15 55 -1 73 -5 75 -17z m2 -47 c0 -18 -30 -30 -71
-30 -55 0 -79 7 -79 24 0 7 25 11 75 11 41 0 75 -2 75 -5z m-35 -70 c-20 -22
-46 -25 -76 -10 -34 19 -20 30 38 30 55 0 56 0 38 -20z"/>
<path d="M440 615 c0 -73 1 -75 25 -75 20 0 25 5 25 25 0 16 6 25 15 25 9 0
15 -9 15 -25 0 -20 5 -25 25 -25 22 0 25 4 25 34 0 19 -5 38 -11 41 -6 4 -8
14 -5 22 13 32 -12 53 -64 53 l-50 0 0 -75z m70 25 c0 -5 -4 -10 -10 -10 -5 0
-10 5 -10 10 0 6 5 10 10 10 6 0 10 -4 10 -10z"/>
<path d="M590 615 l0 -75 55 0 c48 0 55 2 55 20 0 16 -7 20 -32 21 -30 1 -31
2 -8 8 35 10 40 41 6 41 -14 0 -26 5 -26 10 0 6 14 10 30 10 23 0 30 4 30 20
0 18 -7 20 -55 20 l-55 0 0 -75z"/>
<path d="M727 683 c-13 -12 -7 -33 8 -33 10 0 15 -10 15 -34 0 -21 -6 -36 -15
-40 -8 -3 -15 -12 -15 -21 0 -12 12 -15 55 -15 48 0 55 2 55 20 0 11 -7 20
-15 20 -10 0 -15 11 -15 35 0 24 5 35 15 35 8 0 15 9 15 20 0 17 -7 20 -48 20
-27 0 -52 -3 -55 -7z"/>
<path d="M850 615 c0 -73 1 -75 25 -75 22 0 25 4 25 37 0 35 1 36 15 17 8 -10
15 -27 15 -36 0 -12 8 -18 25 -18 24 0 25 2 25 75 0 69 -2 75 -20 75 -12 0
-24 -9 -28 -21 l-8 -20 -18 20 c-11 12 -27 21 -38 21 -16 0 -18 -9 -18 -75z"/>
<path d="M1007 684 c-11 -12 -8 -47 9 -97 15 -45 18 -47 54 -47 35 0 38 3 54
45 23 59 18 99 -11 103 -19 3 -23 -1 -23 -25 0 -37 -10 -73 -21 -73 -4 0 -9
21 -11 48 -2 38 -7 48 -23 50 -12 2 -24 0 -28 -4z"/>
<path d="M1160 615 l0 -75 55 0 c48 0 55 2 55 20 0 16 -7 20 -32 21 -30 1 -31
2 -8 8 35 10 40 41 6 41 -14 0 -26 5 -26 10 0 6 14 10 30 10 23 0 30 4 30 20
0 18 -7 20 -55 20 l-55 0 0 -75z"/>
<path d="M1294 676 c-3 -7 -4 -40 -2 -72 3 -52 5 -59 26 -62 19 -3 22 1 22 35
l1 38 19 -24 c11 -13 20 -29 20 -37 0 -8 9 -14 20 -14 18 0 20 7 20 75 0 68
-2 75 -20 75 -15 0 -20 -7 -20 -27 l0 -27 -28 27 c-31 30 -50 34 -58 13z"/>
<path d="M1440 670 c0 -13 7 -20 20 -20 18 0 20 -7 20 -55 0 -52 1 -55 25 -55
24 0 25 3 25 55 0 48 2 55 20 55 13 0 20 7 20 20 0 18 -7 20 -65 20 -58 0 -65
-2 -65 -20z"/>
<path d="M720 415 l0 -75 60 0 60 0 0 40 c0 36 -2 40 -25 40 -18 0 -25 -5 -25
-20 0 -11 -4 -20 -10 -20 -5 0 -10 25 -10 55 0 52 -1 55 -25 55 -24 0 -25 -2
-25 -75z"/>
<path d="M872 478 c-16 -16 -16 -110 0 -126 16 -16 90 -16 106 0 7 7 12 35 12
63 0 62 -12 75 -65 75 -23 0 -46 -5 -53 -12z m68 -63 c0 -24 -5 -35 -15 -35
-10 0 -15 11 -15 35 0 24 5 35 15 35 10 0 15 -11 15 -35z"/>
<path d="M1010 455 c0 -19 7 -53 16 -75 15 -37 19 -40 53 -40 33 0 38 4 49 33
7 18 12 53 12 76 0 38 -2 42 -22 39 -20 -3 -23 -10 -26 -50 -2 -27 -7 -48 -11
-48 -11 0 -21 36 -21 73 0 22 -4 27 -25 27 -22 0 -25 -4 -25 -35z"/>
<path d="M1170 415 l0 -75 55 0 c48 0 55 2 55 20 0 16 -7 20 -30 20 -16 0 -30
5 -30 10 0 6 9 10 20 10 29 0 27 37 -2 43 -17 3 -14 5 10 6 25 1 32 5 32 21 0
18 -7 20 -55 20 l-55 0 0 -75z"/>
</g>
</svg>
